<?xml version="1.0" encoding="UTF-8"?>
<svg version="1.1" xmlns="http://www.w3.org/2000/svg" width="500" height="500">
<path d="M0 0 C0.97710937 -0.03738281 1.95421875 -0.07476562 2.9609375 -0.11328125 C5.625 0.3125 5.625 0.3125 7.4765625 2.20703125 C8.625 4.3125 8.625 4.3125 8.625 6.3125 C9.285 6.3125 9.945 6.3125 10.625 6.3125 C12.3515625 8.4296875 12.3515625 8.4296875 14.25 11.1875 C14.88164062 12.09242188 15.51328125 12.99734375 16.1640625 13.9296875 C17.625 16.3125 17.625 16.3125 17.625 18.3125 C18.285 18.3125 18.945 18.3125 19.625 18.3125 C21.06574715 20.094629 22.43010649 21.93910276 23.75 23.8125 C24.47445313 24.8334375 25.19890625 25.854375 25.9453125 26.90625 C26.77675781 28.09734375 26.77675781 28.09734375 27.625 29.3125 C27.66258423 28.04805054 27.66258423 28.04805054 27.70092773 26.75805664 C27.79588155 23.64008326 27.89512448 20.52228497 27.99731445 17.40454102 C28.04071223 16.05335853 28.0823837 14.70211947 28.12231445 13.35083008 C28.17989952 11.41213299 28.24414298 9.47363724 28.30859375 7.53515625 C28.34525146 6.36734619 28.38190918 5.19953613 28.41967773 3.99633789 C28.625 1.3125 28.625 1.3125 29.625 0.3125 C31.45615883 0.21398829 33.29119933 0.18277371 35.125 0.1875 C36.1253125 0.18492187 37.125625 0.18234375 38.15625 0.1796875 C40.625 0.3125 40.625 0.3125 41.625 1.3125 C41.72361598 2.93377423 41.75298767 4.55932368 41.75439453 6.18359375 C41.75754669 7.22136963 41.76069885 8.25914551 41.76394653 9.32836914 C41.7619223 10.45750732 41.75989807 11.58664551 41.7578125 12.75 C41.75876923 13.90040771 41.75972595 15.05081543 41.76071167 16.23608398 C41.76139369 18.67399144 41.7595379 21.1119007 41.75537109 23.54980469 C41.75002317 27.29626518 41.75531539 31.04260577 41.76171875 34.7890625 C41.76105797 37.15104193 41.75977682 39.51302129 41.7578125 41.875 C41.75983673 43.00413818 41.76186096 44.13327637 41.76394653 45.29663086 C41.75921829 46.85329468 41.75921829 46.85329468 41.75439453 48.44140625 C41.75359894 49.35994385 41.75280334 50.27848145 41.75198364 51.22485352 C41.625 53.3125 41.625 53.3125 40.625 54.3125 C38.93891034 54.38455511 37.24999341 54.39636068 35.5625 54.375 C34.64339844 54.36597656 33.72429687 54.35695313 32.77734375 54.34765625 C32.06707031 54.33605469 31.35679687 54.32445312 30.625 54.3125 C30.625 53.6525 30.625 52.9925 30.625 52.3125 C29.965 52.3125 29.305 52.3125 28.625 52.3125 C28.625 51.6525 28.625 50.9925 28.625 50.3125 C27.965 50.3125 27.305 50.3125 26.625 50.3125 C22.625 44.90073529 22.625 44.90073529 22.625 42.3125 C21.965 42.3125 21.305 42.3125 20.625 42.3125 C18.8961554 40.09435976 17.27833053 37.87643531 15.6875 35.5625 C14.80371632 34.29664391 13.91960983 33.03101313 13.03515625 31.765625 C12.64465088 31.20004883 12.25414551 30.63447266 11.85180664 30.05175781 C10.48122874 28.10867384 9.05925504 26.20892406 7.625 24.3125 C7.59994385 25.18575928 7.5748877 26.05901855 7.54907227 26.95874023 C7.45412291 30.18852552 7.35487971 33.41814154 7.25268555 36.64770508 C7.20928566 38.04739199 7.16761436 39.44713359 7.12768555 40.84692383 C7.07010555 42.85511495 7.00586 44.86311149 6.94140625 46.87109375 C6.90474854 48.08079834 6.86809082 49.29050293 6.83032227 50.53686523 C6.625 53.3125 6.625 53.3125 5.625 54.3125 C3.77212498 54.38476502 1.91666122 54.3963122 0.0625 54.375 C-0.94941406 54.36597656 -1.96132813 54.35695313 -3.00390625 54.34765625 C-4.17759766 54.33025391 -4.17759766 54.33025391 -5.375 54.3125 C-6.61323928 51.83602145 -6.50194221 50.18936259 -6.50439453 47.41967773 C-6.50754669 46.40199814 -6.51069885 45.38431854 -6.51394653 44.33580017 C-6.5119223 43.23369705 -6.50989807 42.13159393 -6.5078125 40.99609375 C-6.50876923 39.86929703 -6.50972595 38.74250031 -6.51071167 37.58155823 C-6.51139303 35.19670557 -6.50954181 32.81185106 -6.50537109 30.42700195 C-6.50001729 26.76183948 -6.50532017 23.09679929 -6.51171875 19.43164062 C-6.51105806 17.11979139 -6.50977708 14.80794224 -6.5078125 12.49609375 C-6.50983673 11.3919664 -6.51186096 10.28783905 -6.51394653 9.1502533 C-6.51079437 8.13572586 -6.50764221 7.12119843 -6.50439453 6.07592773 C-6.50359894 5.17817123 -6.50280334 4.28041473 -6.50198364 3.35545349 C-6.2472169 -0.74331543 -3.52708712 0.08794574 0 0 Z " fill="#E3E2E3" transform="translate(372.375,222.6875)"/>
<path d="M0 0 C3.05918709 0.0218826 4.73613105 0.08496759 7.23828125 1.88671875 C10.0443093 5.09659203 12.06693247 8.38962714 13.3125 12.5 C13.9725 12.5 14.6325 12.5 15.3125 12.5 C17.0413446 14.71814024 18.65916947 16.93606469 20.25 19.25 C21.13378368 20.51585609 22.01789017 21.78148687 22.90234375 23.046875 C23.29284912 23.61245117 23.68335449 24.17802734 24.08569336 24.76074219 C25.45627126 26.70382616 26.87824496 28.60357594 28.3125 30.5 C28.35008423 29.19011108 28.35008423 29.19011108 28.38842773 27.85375977 C28.48337709 24.62397448 28.58262029 21.39435846 28.68481445 18.16479492 C28.72821434 16.76510801 28.76988564 15.36536641 28.80981445 13.96557617 C28.86739445 11.95738505 28.93164 9.94938851 28.99609375 7.94140625 C29.03275146 6.73170166 29.06940918 5.52199707 29.10717773 4.27563477 C29.3125 1.5 29.3125 1.5 30.3125 0.5 C32.14365883 0.40148829 33.97869933 0.37027371 35.8125 0.375 C36.8128125 0.37242187 37.813125 0.36984375 38.84375 0.3671875 C41.3125 0.5 41.3125 0.5 42.3125 1.5 C42.41111598 3.12127423 42.44048767 4.74682368 42.44189453 6.37109375 C42.44504669 7.40886963 42.44819885 8.44664551 42.45144653 9.51586914 C42.4494223 10.64500732 42.44739807 11.77414551 42.4453125 12.9375 C42.44626923 14.08790771 42.44722595 15.23831543 42.44821167 16.42358398 C42.44889369 18.86149144 42.4470379 21.2994007 42.44287109 23.73730469 C42.43752317 27.48376518 42.44281539 31.23010577 42.44921875 34.9765625 C42.44855797 37.33854193 42.44727682 39.70052129 42.4453125 42.0625 C42.44733673 43.19163818 42.44936096 44.32077637 42.45144653 45.48413086 C42.44671829 47.04079468 42.44671829 47.04079468 42.44189453 48.62890625 C42.44109894 49.54744385 42.44030334 50.46598145 42.43948364 51.41235352 C42.3125 53.5 42.3125 53.5 41.3125 54.5 C37.86332582 55.1409385 34.7564261 55.18673526 31.3125 54.5 C28.30124227 52.32655188 26.40842263 49.53597031 24.3125 46.5 C23.00002015 44.70831858 21.68751929 42.91665254 20.375 41.125 C19.71628906 40.20074219 19.05757813 39.27648437 18.37890625 38.32421875 C15.65221429 34.59756793 12.73395459 31.04501754 9.78125 27.49609375 C8.3125 25.5 8.3125 25.5 8.3125 23.5 C7.6525 23.5 6.9925 23.5 6.3125 23.5 C6.31773682 24.40355225 6.32297363 25.30710449 6.32836914 26.23803711 C6.34537686 29.57951489 6.35793333 32.92094692 6.36743164 36.26245117 C6.37247101 37.71070073 6.37930253 39.15894517 6.38793945 40.60717773 C6.40002247 42.68474588 6.40573211 44.76224697 6.41015625 46.83984375 C6.41539307 48.09144287 6.42062988 49.34304199 6.42602539 50.63256836 C6.3125 53.5 6.3125 53.5 5.3125 54.5 C3.64820949 54.59823937 1.97968069 54.62973631 0.3125 54.625 C-1.04875 54.62886719 -1.04875 54.62886719 -2.4375 54.6328125 C-4.6875 54.5 -4.6875 54.5 -5.6875 53.5 C-5.78611598 51.87872577 -5.81548767 50.25317632 -5.81689453 48.62890625 C-5.82004669 47.59113037 -5.82319885 46.55335449 -5.82644653 45.48413086 C-5.8244223 44.35499268 -5.82239807 43.22585449 -5.8203125 42.0625 C-5.82174759 40.33688843 -5.82174759 40.33688843 -5.82321167 38.57641602 C-5.82389369 36.13850856 -5.8220379 33.7005993 -5.81787109 31.26269531 C-5.81252317 27.51623482 -5.81781539 23.76989423 -5.82421875 20.0234375 C-5.82355797 17.66145807 -5.82227682 15.29947871 -5.8203125 12.9375 C-5.82233673 11.80836182 -5.82436096 10.67922363 -5.82644653 9.51586914 C-5.82329437 8.47809326 -5.82014221 7.44031738 -5.81689453 6.37109375 C-5.81609894 5.45255615 -5.81530334 4.53401855 -5.81448364 3.58764648 C-5.57985588 -0.26969937 -3.4261595 0.20485259 0 0 Z " fill="#E7E6E6" transform="translate(255.6875,222.5)"/>
<path d="M0 0 C2.08922483 1.36603162 4.17305467 2.74036978 6.25 4.125 C6.25 4.785 6.25 5.445 6.25 6.125 C6.91 6.125 7.57 6.125 8.25 6.125 C9.06302325 7.58304169 9.87540131 9.04144315 10.6875 10.5 C11.36619141 11.71816406 11.36619141 11.71816406 12.05859375 12.9609375 C14.29739121 17.02747452 14.41440939 19.66451644 14.4375 24.375 C14.45167969 25.67953125 14.46585937 26.9840625 14.48046875 28.328125 C14.25922548 31.97301408 13.57827399 34.74393893 12.25 38.125 C11.59 38.125 10.93 38.125 10.25 38.125 C10.04375 38.846875 9.8375 39.56875 9.625 40.3125 C6.85100892 45.98657267 1.48695724 49.05316467 -4.19921875 51.39453125 C-11.74698917 53.55599077 -19.38498807 52.7381525 -26.4921875 49.52734375 C-32.11224607 46.03668454 -37.32322564 39.70675427 -39.3046875 33.34375 C-40.87217742 25.53380021 -40.13338081 18.26769281 -36.75 11.125 C-36.358125 10.25875 -35.96625 9.3925 -35.5625 8.5 C-27.61090277 -1.91933431 -11.94096779 -5.94828879 0 0 Z M-25.0625 15.3125 C-27.98975085 20.19125141 -28.04539791 24.38215233 -27.125 29.8125 C-25.28781935 34.2384352 -22.7740723 36.65929247 -18.9375 39.4375 C-14.01260553 40.98532398 -9.55504895 40.85099301 -5 38.5 C-1.53192682 36.21440486 0.47951783 33.94924149 2.25 30.125 C3.03966018 25.12653246 2.83113052 21.33196339 0.625 16.75 C-2.50337724 13.2923199 -5.15417336 10.53977302 -9.92578125 9.77734375 C-16.18243616 9.53548986 -20.44093822 10.94075237 -25.0625 15.3125 Z " fill="#E8E7E7" transform="translate(344.75,224.875)"/>
<path d="M0 0 C0.87527344 -0.03996094 1.75054687 -0.07992187 2.65234375 -0.12109375 C5.0625 0.4375 5.0625 0.4375 6.734375 2.59375 C8.08630529 5.48847132 9.27430678 8.37551641 10.375 11.375 C12.12542418 16.0306058 13.96295579 20.62235379 15.9375 25.1875 C16.4325 26.33605469 16.9275 27.48460937 17.4375 28.66796875 C18.29442279 30.65626411 19.15196554 32.64427401 20.01171875 34.63134766 C20.9962453 36.91706418 21.96792075 39.20790874 22.9375 41.5 C23.24800293 42.21446289 23.55850586 42.92892578 23.87841797 43.66503906 C25.4396678 47.38414975 26.45740677 50.38575653 26.0625 54.4375 C22.33600734 54.78444932 18.78171391 54.91722469 15.0625 54.4375 C12.66833443 52.2323475 12.17013286 51.36101174 11.0625 48.4375 C10.69125 47.51324219 10.32 46.58898437 9.9375 45.63671875 C9.08277254 43.44915065 8.24905478 41.25328813 7.43359375 39.05078125 C5.17377436 33.09541677 2.60930655 27.27502567 0.0625 21.4375 C-3.81412756 28.95635438 -7.10497685 36.68977768 -10.40234375 44.4765625 C-10.82902344 45.47171875 -11.25570312 46.466875 -11.6953125 47.4921875 C-12.26983154 48.84546143 -12.26983154 48.84546143 -12.85595703 50.22607422 C-13.9375 52.4375 -13.9375 52.4375 -15.9375 54.4375 C-18.5390625 54.6328125 -18.5390625 54.6328125 -21.5625 54.5625 C-22.56539062 54.54445313 -23.56828125 54.52640625 -24.6015625 54.5078125 C-25.75785156 54.47300781 -25.75785156 54.47300781 -26.9375 54.4375 C-28.34000686 50.22997942 -26.61634807 47.56361343 -24.9375 43.6875 C-24.61716797 42.92888672 -24.29683594 42.17027344 -23.96679688 41.38867188 C-21.63128764 35.90868055 -19.1430537 30.50752191 -16.57543945 25.13305664 C-13.89699469 19.48174151 -11.53847304 13.71208048 -9.24609375 7.89453125 C-7.04156631 2.38321266 -6.09673823 0.15219464 0 0 Z " fill="#E4E3E4" transform="translate(217.9375,222.5625)"/>
<path d="M0 0 C3.06933887 0.47993299 4.09764843 1.13922377 6.625 3.125 C8.3763585 6.86653862 7.93186304 9.10208207 7 13.0625 C6.01 13.3925 5.02 13.7225 4 14.0625 C4 14.7225 4 15.3825 4 16.0625 C3.34 16.0625 2.68 16.0625 2 16.0625 C2 16.7225 2 17.3825 2 18.0625 C1.34 18.0625 0.68 18.0625 0 18.0625 C0 18.7225 0 19.3825 0 20.0625 C-1.98260426 21.74982277 -3.9832342 23.41616057 -6 25.0625 C-6.33 25.7225 -6.66 26.3825 -7 27.0625 C-2.38 27.0625 2.24 27.0625 7 27.0625 C7 33.6625 7 40.2625 7 47.0625 C11.455 46.5675 11.455 46.5675 16 46.0625 C17.49821059 49.43347383 18 51.26692119 18 55.0625 C18.59425781 55.03220703 19.18851563 55.00191406 19.80078125 54.97070312 C22.53375406 54.83256686 25.26687125 54.69751437 28 54.5625 C28.93457031 54.51480469 29.86914062 54.46710938 30.83203125 54.41796875 C46.2058121 53.66540605 46.2058121 53.66540605 49 55.0625 C48.46512836 59.1167225 46.44704885 60.97605425 43.59765625 63.79296875 C42.70755859 64.67791016 41.81746094 65.56285156 40.90039062 66.47460938 C39.96388672 67.39048828 39.02738281 68.30636719 38.0625 69.25 C37.12986328 70.17748047 36.19722656 71.10496094 35.23632812 72.06054688 C27.31858564 79.88668858 27.31858564 79.88668858 23.1875 80.4375 C20 80.0625 20 80.0625 17.0625 78 C15 75.0625 15 75.0625 14.9375 71.5 C16.05913159 67.87119191 17.0001845 66.3350875 20 64.0625 C20.66 64.0625 21.32 64.0625 22 64.0625 C22.66 62.7425 23.32 61.4225 24 60.0625 C23.21753906 60.00191406 22.43507812 59.94132812 21.62890625 59.87890625 C20.61699219 59.79511719 19.60507813 59.71132813 18.5625 59.625 C17.55316406 59.54378906 16.54382813 59.46257812 15.50390625 59.37890625 C13 59.0625 13 59.0625 12 58.0625 C11.95919217 56.06291636 11.95745644 54.06204746 12 52.0625 C11.36191406 52.07410156 10.72382812 52.08570313 10.06640625 52.09765625 C9.24011719 52.10667969 8.41382813 52.11570312 7.5625 52.125 C6.73878906 52.13660156 5.91507813 52.14820313 5.06640625 52.16015625 C3 52.0625 3 52.0625 2 51.0625 C2 48.0925 2 45.1225 2 42.0625 C-9.22 42.0625 -20.44 42.0625 -32 42.0625 C-32.495 40.5775 -32.495 40.5775 -33 39.0625 C-32 38.0625 -32 38.0625 -28.76538086 37.94897461 C-27.33185874 37.94913369 -25.89833088 37.95482593 -24.46484375 37.96484375 C-23.33496788 37.96696617 -23.33496788 37.96696617 -22.18226624 37.96913147 C-19.7673044 37.97474624 -17.35243399 37.98730117 -14.9375 38 C-13.30403779 38.0050131 -11.67057414 38.00957634 -10.03710938 38.01367188 C-6.02470415 38.02472046 -2.01236759 38.04199494 2 38.0625 C2 35.7525 2 33.4425 2 31.0625 C1.39003174 31.08344727 0.78006348 31.10439453 0.15161133 31.12597656 C-2.62792294 31.20942861 -5.4071932 31.26125011 -8.1875 31.3125 C-9.14720703 31.34601563 -10.10691406 31.37953125 -11.09570312 31.4140625 C-18.23568018 31.51288571 -18.23568018 31.51288571 -22.12890625 29.21875 C-24 27.0625 -24 27.0625 -24.75 24.3125 C-23.59046516 19.28784901 -20.54557531 16.6797031 -17 13.0625 C-16.05721498 12.0049881 -15.11728821 10.94492357 -14.1796875 9.8828125 C-5.48224781 0.28044502 -5.48224781 0.28044502 0 0 Z M-4.25 7.1875 C-5.61125 8.610625 -5.61125 8.610625 -7 10.0625 C-8.86123355 11.64512895 -10.74433137 13.19491277 -12.64453125 14.73046875 C-13.09183594 15.17003906 -13.53914063 15.60960937 -14 16.0625 C-14 16.7225 -14 17.3825 -14 18.0625 C-14.66 18.0625 -15.32 18.0625 -16 18.0625 C-16 18.7225 -16 19.3825 -16 20.0625 C-16.99 20.3925 -17.98 20.7225 -19 21.0625 C-19.91428339 22.96958843 -19.91428339 22.96958843 -20 25.0625 C-18.16116119 27.34978734 -18.16116119 27.34978734 -15.375 27.1875 C-14.59125 27.14625 -13.8075 27.105 -13 27.0625 C-13 26.4025 -13 25.7425 -13 25.0625 C-12.34 25.0625 -11.68 25.0625 -11 25.0625 C-11 24.4025 -11 23.7425 -11 23.0625 C-10.34 23.0625 -9.68 23.0625 -9 23.0625 C-9 22.4025 -9 21.7425 -9 21.0625 C-8.34 21.0625 -7.68 21.0625 -7 21.0625 C-5.29317519 19.41376195 -5.29317519 19.41376195 -3.5625 17.3125 C-2.96566406 16.61640625 -2.36882812 15.9203125 -1.75390625 15.203125 C-0.10918902 13.19576411 1.46126108 11.15179688 3 9.0625 C2.34 7.7425 1.68 6.4225 1 5.0625 C-2.15230252 4.71918823 -2.15230252 4.71918823 -4.25 7.1875 Z M31 59.0625 C31 59.7225 31 60.3825 31 61.0625 C30.34 61.0625 29.68 61.0625 29 61.0625 C29 61.7225 29 62.3825 29 63.0625 C28.34 63.0625 27.68 63.0625 27 63.0625 C27 63.7225 27 64.3825 27 65.0625 C26.401875 65.330625 25.80375 65.59875 25.1875 65.875 C22.92899048 67.10104802 21.52937348 67.99784581 20 70.0625 C19.74930087 72.68820704 19.74930087 72.68820704 20 75.0625 C21.7843606 75.86180108 21.7843606 75.86180108 24 76.0625 C26.16631386 74.79856005 26.16631386 74.79856005 28.125 72.875 C28.80820313 72.26269531 29.49140625 71.65039062 30.1953125 71.01953125 C31.95500927 69.11128865 32.97998729 67.43376667 34 65.0625 C34.66 65.0625 35.32 65.0625 36 65.0625 C38.71226419 62.4033886 38.71226419 62.4033886 40 59.0625 C37.03 59.0625 34.06 59.0625 31 59.0625 Z " fill="#5E948B" transform="translate(117,207.9375)"/>
<path d="M0 0 C1.65 0 3.3 0 5 0 C5 2.31 5 4.62 5 7 C6.12523071 7.14163574 6.12523071 7.14163574 7.27319336 7.28613281 C10.41921552 8.10974896 11.46340536 9.04433107 13.62890625 11.421875 C14.27150391 12.11796875 14.91410156 12.8140625 15.57617188 13.53125 C16.23166016 14.2634375 16.88714844 14.995625 17.5625 15.75 C18.22185547 16.46671875 18.88121094 17.1834375 19.56054688 17.921875 C28.8496698 28.0792275 28.8496698 28.0792275 29.5 32.0625 C29 35 29 35 27.5 37.375 C24.78850902 39.13746914 22.64050407 39.97615987 19.37109375 39.87109375 C13.87358774 37.85141691 9.80527209 32.30891104 6 28 C5.67 29.98 5.34 31.96 5 34 C3.35 34 1.7 34 0 34 C-0.16749457 29.47954554 -0.32806608 24.95891882 -0.48217773 20.43798828 C-0.53560391 18.89950922 -0.59093379 17.36109506 -0.64819336 15.82275391 C-0.73008748 13.61374914 -0.80517099 11.40460276 -0.87890625 9.1953125 C-0.90594131 8.50567413 -0.93297638 7.81603577 -0.96083069 7.10549927 C-1.11387171 2.22774341 -1.11387171 2.22774341 0 0 Z M5 12 C4.34482457 17.27300274 4.34482457 17.27300274 6.24804688 22.06640625 C7.99524255 24.14999316 9.82546503 26.07928356 11.75 28 C12.38421875 28.67933594 13.0184375 29.35867187 13.671875 30.05859375 C16.18933275 32.69816017 16.18933275 32.69816017 19 35 C20.32 35 21.64 35 23 35 C23.78206218 32.69351095 23.78206218 32.69351095 24 30 C22.820121 27.91250494 22.820121 27.91250494 20.9375 26.125 C20.29039062 25.44308594 19.64328125 24.76117188 18.9765625 24.05859375 C18.32429688 23.37925781 17.67203125 22.69992188 17 22 C15.9294469 20.73594317 14.86629339 19.46556224 13.8125 18.1875 C11.73800535 15.76449025 9.75344216 13.67173274 7 12 C6.34 12 5.68 12 5 12 Z " fill="#6BA39D" transform="translate(137,207)"/>
<path d="M0 0 C0.66 0.33 1.32 0.66 2 1 C2.59355614 3.64860427 2.74209269 6.29197322 3 9 C3.89138672 8.95456055 3.89138672 8.95456055 4.80078125 8.90820312 C7.53375406 8.77006686 10.26687125 8.63501437 13 8.5 C13.93457031 8.45230469 14.86914062 8.40460938 15.83203125 8.35546875 C31.2058121 7.60290605 31.2058121 7.60290605 34 9 C33.46512836 13.0542225 31.44704885 14.91355425 28.59765625 17.73046875 C27.70755859 18.61541016 26.81746094 19.50035156 25.90039062 20.41210938 C24.96388672 21.32798828 24.02738281 22.24386719 23.0625 23.1875 C22.12986328 24.11498047 21.19722656 25.04246094 20.23632812 25.99804688 C12.31858564 33.82418858 12.31858564 33.82418858 8.1875 34.375 C5 34 5 34 2.0625 31.9375 C0 29 0 29 -0.0625 25.4375 C1.05913159 21.80869191 2.0001845 20.2725875 5 18 C5.66 18 6.32 18 7 18 C7.66 16.68 8.32 15.36 9 14 C5.37 13.67 1.74 13.34 -2 13 C-1.34 10.03 -0.68 7.06 0 4 C-0.94875 4.04125 -1.8975 4.0825 -2.875 4.125 C-6 4 -6 4 -8 2 C-6.865625 1.855625 -5.73125 1.71125 -4.5625 1.5625 C-1.19222799 1.38828522 -1.19222799 1.38828522 0 0 Z M16 13 C16 13.66 16 14.32 16 15 C15.34 15 14.68 15 14 15 C14 15.66 14 16.32 14 17 C13.34 17 12.68 17 12 17 C12 17.66 12 18.32 12 19 C11.401875 19.268125 10.80375 19.53625 10.1875 19.8125 C7.92899048 21.03854802 6.52937348 21.93534581 5 24 C4.74930087 26.62570704 4.74930087 26.62570704 5 29 C6.7843606 29.79930108 6.7843606 29.79930108 9 30 C11.16631386 28.73606005 11.16631386 28.73606005 13.125 26.8125 C13.80820313 26.20019531 14.49140625 25.58789062 15.1953125 24.95703125 C16.95500927 23.04878865 17.97998729 21.37126667 19 19 C19.66 19 20.32 19 21 19 C23.71226419 16.3408886 23.71226419 16.3408886 25 13 C22.03 13 19.06 13 16 13 Z " fill="#6CA4A6" transform="translate(132,254)"/>
<path d="M0 0 C2.42807403 1.8091532 4.0285956 3.64393133 6 6 C6 6.66 6 7.32 6 8 C6.598125 8.268125 7.19625 8.53625 7.8125 8.8125 C9.99847854 9.99917406 11.41332594 11.09599113 13 13 C13 13.66 13 14.32 13 15 C13.66 15 14.32 15 15 15 C15 15.66 15 16.32 15 17 C15.66 17 16.32 17 17 17 C19.10383305 20.39849955 20.13032451 22.16918124 19.5 26.1875 C17.72204351 29.52116843 16.50110995 30.61584025 13 32 C9.4658688 31.74756206 7.99683874 30.99789249 5 29 C5 28.34 5 27.68 5 27 C4.34 27 3.68 27 3 27 C1.5546875 25.53125 1.5546875 25.53125 -0.125 23.5 C-3.32235879 19.70481572 -6.7427303 16.30927241 -10.3984375 12.95703125 C-12.33425383 10.59155812 -12.80266738 9.03699708 -13 6 C-9.35879346 -0.52906 -7.3471302 -1.83678255 0 0 Z M-7.125 5 C-7.74375 5.66 -8.3625 6.32 -9 7 C-7.68226796 10.00828582 -6.39598781 11.73996372 -3.8125 13.75 C-0.31283445 16.61402692 2.53923213 19.79028921 5.421875 23.265625 C7.0792468 25.22768174 7.0792468 25.22768174 10 27 C12.64632287 26.6878236 12.64632287 26.6878236 15 26 C15.45762518 23.74145139 15.45762518 23.74145139 15 21 C13.23351402 18.89593185 11.57370306 17.14426487 9.5625 15.3125 C4.07862191 10.15724382 4.07862191 10.15724382 3 8 C2.34 8 1.68 8 1 8 C1 7.34 1 6.68 1 6 C-2.97394488 2.46167717 -2.97394488 2.46167717 -7.125 5 Z " fill="#698791" transform="translate(95,257)"/>
<path d="M0 0 C3.06933887 0.47993299 4.09764843 1.13922377 6.625 3.125 C8.3763585 6.86653862 7.93186304 9.10208207 7 13.0625 C6.01 13.3925 5.02 13.7225 4 14.0625 C4 14.7225 4 15.3825 4 16.0625 C3.34 16.0625 2.68 16.0625 2 16.0625 C2 16.7225 2 17.3825 2 18.0625 C1.34 18.0625 0.68 18.0625 0 18.0625 C-0.33 18.7225 -0.66 19.3825 -1 20.0625 C-1 18.7425 -1 17.4225 -1 16.0625 C-1.66 15.7325 -2.32 15.4025 -3 15.0625 C-1.66536458 13.59765625 -0.33072917 12.1328125 1.00390625 10.66796875 C1.33261719 10.13816406 1.66132812 9.60835937 2 9.0625 C1.67 8.0725 1.34 7.0825 1 6.0625 C-2.29838923 6.37909932 -3.73301403 6.80802148 -6.16796875 9.12890625 C-6.83441406 9.95261719 -7.50085938 10.77632812 -8.1875 11.625 C-9.42033201 13.13598531 -10.68344367 14.62387885 -12 16.0625 C-12.66 16.0625 -13.32 16.0625 -14 16.0625 C-14 16.7225 -14 17.3825 -14 18.0625 C-14.66 18.0625 -15.32 18.0625 -16 18.0625 C-16 18.7225 -16 19.3825 -16 20.0625 C-16.7734375 20.743125 -16.7734375 20.743125 -17.5625 21.4375 C-18.036875 21.97375 -18.51125 22.51 -19 23.0625 C-18.77242269 25.22549211 -18.77242269 25.22549211 -18 27.0625 C-18.99 26.7325 -19.98 26.4025 -21 26.0625 C-21.33 25.4025 -21.66 24.7425 -22 24.0625 C-22.66 25.0525 -23.32 26.0425 -24 27.0625 C-24.52518757 24.06142818 -24.5521268 21.91630432 -22.86328125 19.3046875 C-20.98977898 17.1363241 -19.00611574 15.10914333 -17 13.0625 C-16.05721498 12.0049881 -15.11728821 10.94492357 -14.1796875 9.8828125 C-5.48224781 0.28044502 -5.48224781 0.28044502 0 0 Z " fill="#6F9D75" transform="translate(117,207.9375)"/>
<path d="M0 0 C1.98 0.495 1.98 0.495 4 1 C4 3.64 4 6.28 4 9 C4.99 9.33 5.98 9.66 7 10 C6.01 10.495 6.01 10.495 5 11 C5.08746284 12.43861294 5.19565348 13.87597508 5.3125 15.3125 C5.37050781 16.11300781 5.42851562 16.91351563 5.48828125 17.73828125 C6.0894461 20.39533809 7.00875708 21.21617822 9 23 C9.6875 25.1875 9.6875 25.1875 10 27 C9.34 27.33 8.68 27.66 8 28 C7.01 27.67 6.02 27.34 5 27 C5 29.31 5 31.62 5 34 C3.35 34 1.7 34 0 34 C-0.16749457 29.47954554 -0.32806608 24.95891882 -0.48217773 20.43798828 C-0.53560391 18.89950922 -0.59093379 17.36109506 -0.64819336 15.82275391 C-0.73008748 13.61374914 -0.80517099 11.40460276 -0.87890625 9.1953125 C-0.90594131 8.50567413 -0.93297638 7.81603577 -0.96083069 7.10549927 C-1.11387171 2.22774341 -1.11387171 2.22774341 0 0 Z " fill="#71A170" transform="translate(137,207)"/>
<path d="M0 0 C0.99 0 1.98 0 3 0 C2.55530671 5.03985731 0.28656638 7.37634988 -3 11 C1.29 11 5.58 11 10 11 C10 16.61 10 22.22 10 28 C9.34 28 8.68 28 8 28 C8 23.38 8 18.76 8 14 C5.32777344 14.03480469 5.32777344 14.03480469 2.6015625 14.0703125 C0.27604584 14.08906667 -2.04947533 14.10726724 -4.375 14.125 C-5.550625 14.14175781 -6.72625 14.15851563 -7.9375 14.17578125 C-9.61972656 14.18544922 -9.61972656 14.18544922 -11.3359375 14.1953125 C-12.37282715 14.20578613 -13.4097168 14.21625977 -14.47802734 14.22705078 C-17 14 -17 14 -19 12 C-18.625 9.375 -18.625 9.375 -18 7 C-17.01 8.485 -17.01 8.485 -16 10 C-12.43230448 10.73606499 -12.43230448 10.73606499 -9 11 C-9 10.34 -9 9.68 -9 9 C-8.34 9 -7.68 9 -7 9 C-7 8.34 -7 7.68 -7 7 C-6.34 7 -5.68 7 -5 7 C-5 6.34 -5 5.68 -5 5 C-4.34 5 -3.68 5 -3 5 C-2.690625 4.360625 -2.38125 3.72125 -2.0625 3.0625 C-1 1 -1 1 0 0 Z " fill="#80C6BC" transform="translate(113,224)"/>
<path d="M0 0 C0.99 0.495 0.99 0.495 2 1 C2 1.66 2 2.32 2 3 C2.82371094 3.30744141 2.82371094 3.30744141 3.6640625 3.62109375 C7.44460228 5.85275017 9.99584531 9.38530764 12.7578125 12.74414062 C15.2099663 15.57169437 16.68345589 16.91772804 20.3515625 17.87109375 C21.22554687 17.91363281 22.09953125 17.95617187 23 18 C23.66 17.01 24.32 16.02 25 15 C25.99 15.99 26.98 16.98 28 18 C27.03558469 20.41103827 26.31202953 21.77404758 24.1875 23.3125 C21.39088352 24.19143661 19.78288578 23.85627255 17 23 C16.01 22.34 15.02 21.68 14 21 C14 20.34 14 19.68 14 19 C13.34 19 12.68 19 12 19 C10.37890625 17.390625 10.37890625 17.390625 8.5625 15.25 C7.96566406 14.55390625 7.36882812 13.8578125 6.75390625 13.140625 C6.17511719 12.43421875 5.59632812 11.7278125 5 11 C4.41089844 10.31421875 3.82179688 9.6284375 3.21484375 8.921875 C2.61349609 7.97054688 2.61349609 7.97054688 2 7 C2.33 6.01 2.66 5.02 3 4 C2.34 4 1.68 4 1 4 C0.67 2.68 0.34 1.36 0 0 Z " fill="#73909B" transform="translate(86,265)"/>
<path d="M0 0 C0.66 0.33 1.32 0.66 2 1 C2.59355614 3.64860427 2.74209269 6.29197322 3 9 C3.85980469 8.98839844 4.71960938 8.97679687 5.60546875 8.96484375 C13.7925052 8.90234729 21.84864083 9.24173403 30 10 C29.67 11.32 29.34 12.64 29 14 C28.505 13.505 28.505 13.505 28 13 C26.04693206 12.76388283 24.08669993 12.58568597 22.125 12.4375 C21.05507812 12.35371094 19.98515625 12.26992188 18.8828125 12.18359375 C16.9248868 12.05890201 14.96189222 12 13 12 C8.33333333 12 3.66666667 12 -1 12 C-0.67 9.36 -0.34 6.72 0 4 C-0.94875 4.04125 -1.8975 4.0825 -2.875 4.125 C-6 4 -6 4 -8 2 C-6.865625 1.855625 -5.73125 1.71125 -4.5625 1.5625 C-1.19222799 1.38828522 -1.19222799 1.38828522 0 0 Z " fill="#669294" transform="translate(132,254)"/>
<path d="M0 0 C2.45840605 -0.02691685 4.91651882 -0.04679802 7.375 -0.0625 C8.07367188 -0.07087891 8.77234375 -0.07925781 9.4921875 -0.08789062 C14.7734375 -0.11328125 14.7734375 -0.11328125 17 1 C16.58685438 5.44926052 13.49538473 7.84100104 10.4375 10.75 C9.91736328 11.25660156 9.39722656 11.76320313 8.86132812 12.28515625 C7.58089916 13.53034405 6.29132446 14.76611502 5 16 C4.01 15.34 3.02 14.68 2 14 C2 13.01 2 12.02 2 11 C2.66 11 3.32 11 4 11 C4.33 10.01 4.66 9.02 5 8 C5.66 8 6.32 8 7 8 C6.67 6.68 6.34 5.36 6 4 C7.66611905 3.957279 9.33382885 3.95936168 11 4 C11.33 4.33 11.66 4.66 12 5 C12.33 4.01 12.66 3.02 13 2 C8.71 2 4.42 2 0 2 C0 1.34 0 0.68 0 0 Z " fill="#5D9194" transform="translate(149,262)"/>
<path d="M0 0 C0.99 0.66 1.98 1.32 3 2 C0.88046555 6.88790599 -2.63760342 10.03487011 -7 13 C-11.26125032 13.72360855 -12.38751859 13.40832094 -16 11 C-16.29296875 8.8359375 -16.29296875 8.8359375 -16.1875 6.375 C-16.16042969 5.55773437 -16.13335937 4.74046875 -16.10546875 3.8984375 C-16.05326172 2.95871094 -16.05326172 2.95871094 -16 2 C-15.01 2.495 -15.01 2.495 -14 3 C-14 4.98 -14 6.96 -14 9 C-7.46969546 7.80055631 -4.33271206 4.92533226 0 0 Z " fill="#73ABB0" transform="translate(150,275)"/>
<path d="M0 0 C10.89 0 21.78 0 33 0 C32.67 0.99 32.34 1.98 32 3 C21.11 3 10.22 3 -1 3 C-0.67 2.01 -0.34 1.02 0 0 Z " fill="#86CA93" transform="translate(86,247)"/>
<path d="M0 0 C2.0625 1.5625 2.0625 1.5625 4 4 C3.75 7.75 3.75 7.75 3 11 C2.01 11.33 1.02 11.66 0 12 C0 12.66 0 13.32 0 14 C-0.66 14 -1.32 14 -2 14 C-2 14.66 -2 15.32 -2 16 C-2.66 16 -3.32 16 -4 16 C-4.33 16.66 -4.66 17.32 -5 18 C-5 16.68 -5 15.36 -5 14 C-5.66 13.67 -6.32 13.34 -7 13 C-5.66536458 11.53515625 -4.33072917 10.0703125 -2.99609375 8.60546875 C-2.66738281 8.07566406 -2.33867188 7.54585937 -2 7 C-2.33 6.01 -2.66 5.02 -3 4 C-4.32 4 -5.64 4 -7 4 C-7 3.34 -7 2.68 -7 2 C-4.69 2.33 -2.38 2.66 0 3 C0 2.01 0 1.02 0 0 Z " fill="#577E63" transform="translate(121,210)"/>
<path d="M0 0 C0.66 0 1.32 0 2 0 C2 2.31 2 4.62 2 7 C3.11761719 7.13148438 3.11761719 7.13148438 4.2578125 7.265625 C7.51851211 8.13886079 8.67040491 9.23316612 10.875 11.75 C11.49117187 12.42546875 12.10734375 13.1009375 12.7421875 13.796875 C14 16 14 16 13.6953125 18.765625 C13.46585938 19.50296875 13.23640625 20.2403125 13 21 C9.19364503 17.79239749 5.45436433 14.59253891 2 11 C2.33 10.67 2.66 10.34 3 10 C2.34 9.67 1.68 9.34 1 9 C0.5859375 6.93359375 0.5859375 6.93359375 0.375 4.4375 C0.30023438 3.61121094 0.22546875 2.78492188 0.1484375 1.93359375 C0.09945312 1.29550781 0.05046875 0.65742188 0 0 Z " fill="#608C71" transform="translate(140,207)"/>
<path d="M0 0 C0.928125 0.0825 1.85625 0.165 2.8125 0.25 C2.8125 0.91 2.8125 1.57 2.8125 2.25 C1.1625 2.25 -0.4875 2.25 -2.1875 2.25 C-2.1875 5.55 -2.1875 8.85 -2.1875 12.25 C-1.5275 12.25 -0.8675 12.25 -0.1875 12.25 C-0.1875 13.24 -0.1875 14.23 -0.1875 15.25 C-3.52913899 13.86725283 -5.44516748 12.45955991 -7.1875 9.25 C-6.93250953 4.15019063 -5.36909949 0.42110584 0 0 Z " fill="#74949D" transform="translate(89.1875,256.75)"/>
<path d="M0 0 C0.99 0 1.98 0 3 0 C2.55530671 5.03985731 0.28656638 7.37634988 -3 11 C-2.01 11.33 -1.02 11.66 0 12 C-1.65 12 -3.3 12 -5 12 C-5.33 11.34 -5.66 10.68 -6 10 C-6.99 10.33 -7.98 10.66 -9 11 C-9 10.34 -9 9.68 -9 9 C-8.34 9 -7.68 9 -7 9 C-7 8.34 -7 7.68 -7 7 C-6.34 7 -5.68 7 -5 7 C-5 6.34 -5 5.68 -5 5 C-4.34 5 -3.68 5 -3 5 C-2.690625 4.360625 -2.38125 3.72125 -2.0625 3.0625 C-1 1 -1 1 0 0 Z " fill="#76AF9B" transform="translate(113,224)"/>
<path d="M0 0 C0 0.99 0 1.98 0 3 C0.061875 3.825 0.12375 4.65 0.1875 5.5 C-0.04192229 8.55896387 -0.91898221 8.91898221 -3 11 C-2.77242269 13.16299211 -2.77242269 13.16299211 -2 15 C-2.99 14.67 -3.98 14.34 -5 14 C-5.33 13.34 -5.66 12.68 -6 12 C-6.66 12.99 -7.32 13.98 -8 15 C-8.4375 12.5 -8.4375 12.5 -8 9 C-5.65146884 5.69399075 -2.861105 2.861105 0 0 Z " fill="#66967D" transform="translate(101,220)"/>
<path d="M0 0 C3.26008643 3.16952847 6.22237877 6.39937989 9 10 C8.01 10.495 8.01 10.495 7 11 C6.67 11.66 6.34 12.32 6 13 C3.03 10.03 0.06 7.06 -3 4 C-2.01 3.34 -1.02 2.68 0 2 C0 1.34 0 0.68 0 0 Z " fill="#639186" transform="translate(146,231)"/>
<path d="M0 0 C0.66 0.33 1.32 0.66 2 1 C2.625 3.0625 2.625 3.0625 3 5 C3.66 4.67 4.32 4.34 5 4 C5.99 4.99 6.98 5.98 8 7 C7.34 7.66 6.68 8.32 6 9 C4.68 8.34 3.36 7.68 2 7 C2 8.98 2 10.96 2 13 C1.01 13 0.02 13 -1 13 C-1.02708567 11.39592672 -1.04643483 9.7917215 -1.0625 8.1875 C-1.07410156 7.29417969 -1.08570313 6.40085938 -1.09765625 5.48046875 C-1 3 -1 3 0 0 Z " fill="#8CCF99" transform="translate(139,226)"/>
<path d="M0 0 C0.33 0 0.66 0 1 0 C1 1.98 1 3.96 1 6 C1.66 6.33 2.32 6.66 3 7 C1 9 1 9 -0.9453125 9.1953125 C-2.96354167 9.13020833 -4.98177083 9.06510417 -7 9 C-7.66 7.35 -8.32 5.7 -9 4 C-6.36 4.33 -3.72 4.66 -1 5 C-0.67 3.35 -0.34 1.7 0 0 Z " fill="#59948F" transform="translate(161,237)"/>
<path d="M0 0 C1.21816406 0.03480469 1.21816406 0.03480469 2.4609375 0.0703125 C3.68683594 0.09738281 3.68683594 0.09738281 4.9375 0.125 C5.87722656 0.15980469 5.87722656 0.15980469 6.8359375 0.1953125 C6.8359375 1.5153125 6.8359375 2.8353125 6.8359375 4.1953125 C4.5259375 3.8653125 2.2159375 3.5353125 -0.1640625 3.1953125 C-0.8240625 4.5153125 -1.4840625 5.8353125 -2.1640625 7.1953125 C-3.1540625 6.8653125 -4.1440625 6.5353125 -5.1640625 6.1953125 C-4.4726412 2.73820598 -3.94163347 0.35574309 0 0 Z " fill="#7BAE82" transform="translate(114.1640625,208.8046875)"/>
<path d="M0 0 C-0.15481795 2.70931419 -0.48172081 4.46584039 -2.40234375 6.4453125 C-3.89771708 7.67679642 -5.4462924 8.8429837 -7 10 C-7.66 9.34 -8.32 8.68 -9 8 C-9 7.01 -9 6.02 -9 5 C-8.34 5 -7.68 5 -7 5 C-6.67 4.01 -6.34 3.02 -6 2 C-3.85412616 0.684787 -2.52986895 0 0 0 Z " fill="#68A6AA" transform="translate(160,268)"/>
<path d="M0 0 C6.14587738 0.2410148 6.14587738 0.2410148 8.578125 2.40234375 C9.78844931 3.88046971 10.90220903 5.43647953 12 7 C11.34 7 10.68 7 10 7 C9.34 7.66 8.68 8.32 8 9 C8 8.34 8 7.68 8 7 C3.56906802 5.18698242 3.56906802 5.18698242 -1 6 C-1 5.01 -1 4.02 -1 3 C0.65 3 2.3 3 4 3 C4 2.34 4 1.68 4 1 C2.68 0.67 1.36 0.34 0 0 Z " fill="#5F7F8B" transform="translate(88,256)"/>
<path d="M0 0 C1.32 0.99 2.64 1.98 4 3 C3.03558469 5.41103827 2.31202953 6.77404758 0.1875 8.3125 C-2.54191176 9.17031512 -4.27678692 8.75644808 -7 8 C-7 7.01 -7 6.02 -7 5 C-5.02 5 -3.04 5 -1 5 C-0.67 3.35 -0.34 1.7 0 0 Z " fill="#708B98" transform="translate(110,280)"/>
<path d="M0 0 C0.33 0.66 0.66 1.32 1 2 C1.66 2 2.32 2 3 2 C2.34 4.64 1.68 7.28 1 10 C1.99 10.33 2.98 10.66 4 11 C2.68 11 1.36 11 0 11 C-0.33 9.02 -0.66 7.04 -1 5 C-1.33 7.31 -1.66 9.62 -2 12 C-2.66 11.34 -3.32 10.68 -4 10 C-3.66302652 3.82215289 -3.66302652 3.82215289 -1.4375 1.0625 C-0.7259375 0.5365625 -0.7259375 0.5365625 0 0 Z " fill="#548183" transform="translate(136,273)"/>
<path d="M0 0 C1.32 0.33 2.64 0.66 4 1 C5.35439668 3.70879335 5.06501451 6.00933268 5 9 C3.68 9.33 2.36 9.66 1 10 C0.67 6.7 0.34 3.4 0 0 Z " fill="#6EA6A0" transform="translate(161,233)"/>
<path d="M0 0 C0.66 0 1.32 0 2 0 C2 0.66 2 1.32 2 2 C6.62 2 11.24 2 16 2 C14 4 14 4 10.7421875 4.1953125 C9.46601563 4.17210937 8.18984375 4.14890625 6.875 4.125 C4.95300781 4.09792969 4.95300781 4.09792969 2.9921875 4.0703125 C1.51105469 4.03550781 1.51105469 4.03550781 0 4 C0 2.68 0 1.36 0 0 Z " fill="#7FC7C9" transform="translate(131,262)"/>
<path d="M0 0 C4.29 0 8.58 0 13 0 C12.67 0.99 12.34 1.98 12 3 C7.71 2.67 3.42 2.34 -1 2 C-0.67 1.34 -0.34 0.68 0 0 Z " fill="#86CEB1" transform="translate(106,247)"/>
<path d="M0 0 C4.62 0 9.24 0 14 0 C13.67 1.32 13.34 2.64 13 4 C12.67 3.67 12.34 3.34 12 3 C9.98405418 2.76572222 7.961526 2.58663876 5.9375 2.4375 C4.83277344 2.35371094 3.72804687 2.26992188 2.58984375 2.18359375 C1.73519531 2.12300781 0.88054687 2.06242187 0 2 C0 1.34 0 0.68 0 0 Z " fill="#75C9CA" transform="translate(148,264)"/>
<path d="M0 0 C1.9375 0.6875 1.9375 0.6875 4 2 C4.75 4.625 4.75 4.625 5 7 C3.68 7.33 2.36 7.66 1 8 C0.34 5.69 -0.32 3.38 -1 1 C-0.67 0.67 -0.34 0.34 0 0 Z " fill="#809EA9" transform="translate(110,275)"/>
<path d="M0 0 C0.7425 0.45375 1.485 0.9075 2.25 1.375 C4.46930578 2.68640796 6.67967822 3.88280803 9 5 C7.02 5 5.04 5 3 5 C2.67 5.66 2.34 6.32 2 7 C1.34 6.67 0.68 6.34 0 6 C0 5.34 0 4.68 0 4 C-0.66 4 -1.32 4 -2 4 C-1.34 2.68 -0.68 1.36 0 0 Z " fill="#5C7783" transform="translate(100,280)"/>
<path d="M0 0 C0.94875 0.04125 1.8975 0.0825 2.875 0.125 C2.875 0.785 2.875 1.445 2.875 2.125 C1.225 2.125 -0.425 2.125 -2.125 2.125 C-2.455 4.435 -2.785 6.745 -3.125 9.125 C-3.455 9.125 -3.785 9.125 -4.125 9.125 C-4.75 5.75 -4.75 5.75 -5.125 2.125 C-3.125 0.125 -3.125 0.125 0 0 Z " fill="#7EA0A7" transform="translate(89.125,256.875)"/>
<path d="M0 0 C3.16115776 1.36983503 3.9927092 1.9890638 6 5 C5.01 5.495 5.01 5.495 4 6 C3.67 6.66 3.34 7.32 3 8 C0.52557871 5.84832931 -0.56238367 4.28212246 -1 1 C-0.67 0.67 -0.34 0.34 0 0 Z " fill="#679A94" transform="translate(153,224)"/>
<path d="M0 0 C2.86724686 0.57344937 3.8614515 0.8614515 6 3 C5.625 5.125 5.625 5.125 5 7 C2.5 5.1875 2.5 5.1875 0 3 C0 2.01 0 1.02 0 0 Z " fill="#7F9FAB" transform="translate(94,276)"/>
<path d="M0 0 C2 3 2 3 2 7 C0.02 7.66 -1.96 8.32 -4 9 C-4 8.34 -4 7.68 -4 7 C-3.34 7 -2.68 7 -2 7 C-1.34 4.69 -0.68 2.38 0 0 Z " fill="#90C39C" transform="translate(122,213)"/>
<path d="M0 0 C0.99 0 1.98 0 3 0 C1.63016497 3.16115776 1.0109362 3.9927092 -2 6 C-2.66 5.34 -3.32 4.68 -4 4 C-4 3.01 -4 2.02 -4 1 C-3.34 1 -2.68 1 -2 1 C-1.67 1.33 -1.34 1.66 -1 2 C-0.67 1.34 -0.34 0.68 0 0 Z " fill="#5C9A9A" transform="translate(155,272)"/>
<path d="M0 0 C0.33 0 0.66 0 1 0 C1.103125 1.2375 1.20625 2.475 1.3125 3.75 C1.73801682 7.2792866 2.48112592 9.37160966 5 12 C3.0625 12.5625 3.0625 12.5625 1 13 C0 12 0 12 -0.09765625 9.27734375 C-0.08605469 8.17519531 -0.07445312 7.07304687 -0.0625 5.9375 C-0.05347656 4.83277344 -0.04445312 3.72804687 -0.03515625 2.58984375 C-0.02355469 1.73519531 -0.01195312 0.88054687 0 0 Z " fill="#668F6F" transform="translate(141,219)"/>
<path d="M0 0 C1.32 0 2.64 0 4 0 C3.67 1.32 3.34 2.64 3 4 C2.34 4 1.68 4 1 4 C1 4.66 1 5.32 1 6 C0.34 6 -0.32 6 -1 6 C-1.33 5.01 -1.66 4.02 -2 3 C-1.34 2.01 -0.68 1.02 0 0 Z " fill="#7DA686" transform="translate(102,220)"/>
<path d="M0 0 C-0.3125 1.875 -0.3125 1.875 -1 4 C-1.99 4.66 -2.98 5.32 -4 6 C-4.66 5.67 -5.32 5.34 -6 5 C-6 4.01 -6 3.02 -6 2 C-2.25 0 -2.25 0 0 0 Z " fill="#79ACB3" transform="translate(143,270)"/>
<path d="M0 0 C0.99 0.495 0.99 0.495 2 1 C2 1.66 2 2.32 2 3 C2.61875 3.268125 3.2375 3.53625 3.875 3.8125 C6 5 6 5 8 8 C6.68 7.67 5.36 7.34 4 7 C3.67 7.66 3.34 8.32 3 9 C2.67 8.34 2.34 7.68 2 7 C2.33 6.01 2.66 5.02 3 4 C2.34 4 1.68 4 1 4 C0.67 2.68 0.34 1.36 0 0 Z " fill="#54737D" transform="translate(86,265)"/>
<path d="M0 0 C0.66 0.33 1.32 0.66 2 1 C2 2.32 2 3.64 2 5 C2.99 5.33 3.98 5.66 5 6 C3.35 6 1.7 6 0 6 C-0.33 5.34 -0.66 4.68 -1 4 C-1.99 4.33 -2.98 4.66 -4 5 C-4 4.34 -4 3.68 -4 3 C-3.34 3 -2.68 3 -2 3 C-2 2.34 -2 1.68 -2 1 C-1.34 0.67 -0.68 0.34 0 0 Z " fill="#6FA49B" transform="translate(108,230)"/>
<path d="M0 0 C0.99 1.32 1.98 2.64 3 4 C2.34 5.32 1.68 6.64 1 8 C-0.32 6.35 -1.64 4.7 -3 3 C-2.01 2.67 -1.02 2.34 0 2 C0 1.34 0 0.68 0 0 Z " fill="#5C887E" transform="translate(151,220)"/>
<path d="M0 0 C0 1.65 0 3.3 0 5 C-0.33 4.01 -0.66 3.02 -1 2 C-1.94875 2.04125 -2.8975 2.0825 -3.875 2.125 C-7 2 -7 2 -9 0 C-2.25 -1.125 -2.25 -1.125 0 0 Z " fill="#86CCCB" transform="translate(133,256)"/>
<path d="M0 0 C1.875 0.1875 1.875 0.1875 4 1 C5.25 3.5625 5.25 3.5625 6 6 C4.35 5.67 2.7 5.34 1 5 C0.67 3.35 0.34 1.7 0 0 Z " fill="#8BB1BC" transform="translate(97,262)"/>
<path d="M0 0 C2.64 0.33 5.28 0.66 8 1 C5.64046906 3.35953094 4.22104383 3.49141413 1 4 C0.67 2.68 0.34 1.36 0 0 Z " fill="#72ADA4" transform="translate(152,241)"/>
</svg>
